<?xml version="1.0" encoding="utf-8"?>
<!-- Generator: Adobe Illustrator 22.1.0, SVG Export Plug-In . SVG Version: 6.00 Build 0)  -->
<svg version="1.1" id="레이어_1" xmlns="http://www.w3.org/2000/svg" xmlns:xlink="http://www.w3.org/1999/xlink" x="0px"
	 y="0px" viewBox="0 0 30 30" style="enable-background:new 0 0 30 30;" xml:space="preserve">
<style type="text/css">
	.st0{fill:#AF9C4A;}
	.st1{fill:#F4DB62;}
</style>
<g>
	<path class="st0" d="M22.5,11.3h-5c-0.6,0-1-0.5-1-1v-1c0-0.6,0.5-1,1-1h5c0.6,0,1,0.5,1,1v1C23.5,10.8,23,11.3,22.5,11.3z"/>
	<path class="st1" d="M23.3,21.8H6.7C5.8,21.8,5,21,5,20v-8.5c0-1,0.8-1.7,1.7-1.7h16.5c1,0,1.7,0.8,1.7,1.7V20
		C25,21,24.2,21.8,23.3,21.8z"/>
</g>
</svg>
