<?xml version="1.0" encoding="utf-8"?>
<!-- Generator: Adobe Illustrator 22.1.0, SVG Export Plug-In . SVG Version: 6.00 Build 0)  -->
<svg version="1.1" id="레이어_1" xmlns="http://www.w3.org/2000/svg" xmlns:xlink="http://www.w3.org/1999/xlink" x="0px"
	 y="0px" viewBox="0 0 30 30" style="enable-background:new 0 0 30 30;" xml:space="preserve">
<style type="text/css">
	.st0{fill:#CCCCCC;}
</style>
<g>
	<path class="st0" d="M24.6,10.8H5.4c-0.5,0-0.9-0.4-0.9-0.9V8.6c0-0.5,0.4-0.9,0.9-0.9h19.2c0.5,0,0.9,0.4,0.9,0.9v1.2
		C25.5,10.4,25.1,10.8,24.6,10.8z"/>
	<path class="st0" d="M24.6,16.5H5.4c-0.5,0-0.9-0.4-0.9-0.9v-1.2c0-0.5,0.4-0.9,0.9-0.9h19.2c0.5,0,0.9,0.4,0.9,0.9v1.2
		C25.5,16.1,25.1,16.5,24.6,16.5z"/>
	<path class="st0" d="M24.6,22.3H5.4c-0.5,0-0.9-0.4-0.9-0.9v-1.2c0-0.5,0.4-0.9,0.9-0.9h19.2c0.5,0,0.9,0.4,0.9,0.9v1.2
		C25.5,21.9,25.1,22.3,24.6,22.3z"/>
</g>
</svg>
